<mxfile host="app.diagrams.net" modified="2024-03-21T08:35:55.521Z" agent="Mozilla/5.0 (Windows NT 10.0; Win64; x64) AppleWebKit/537.36 (KHTML, like Gecko) Chrome/122.0.0.0 Safari/537.36" version="24.0.7" etag="XBBVJoc2u683zyhrzHUs" type="github">
  <diagram name="Page-1" id="j-a57JPpACFctjR9R4bb">
    <mxGraphModel>
      <root>
        <mxCell id="0" />
        <mxCell id="1" parent="0" />
      </root>
    </mxGraphModel>
  </diagram>
</mxfile>
